<svg xmlns="http://www.w3.org/2000/svg" viewBox="0 0 826.5 184.04"><defs><style>.cls-1{fill:#00a69c;}.cls-2{fill:#52c5ff;}.cls-3{fill:#0f7bde;}.cls-4{fill:#f4f4f4;}.cls-4,.cls-5{stroke:#0f7bde;}.cls-4,.cls-6{stroke-miterlimit:10;}.cls-4,.cls-5,.cls-6{stroke-width:11.89px;}.cls-5,.cls-6{fill:none;stroke-linecap:round;}.cls-5{stroke-linejoin:round;}.cls-6{stroke:#52c5ff;}</style></defs><g id="Layer_2" data-name="Layer 2"><g id="Layer_1-2" data-name="Layer 1"><line class="cls-1" x1="409.05" y1="149.21" x2="418.21" y2="140.05"></line><path class="cls-2" d="M575.59,90.76V85A5.59,5.59,0,0,0,574.3,81c-1.2-1.2-3.41-1.24-4.1-1.22H489.13v21.57h81.15c.55,0,2.77,0,4-1.24a5.57,5.57,0,0,0,1.29-3.91V90.76Z"></path><path class="cls-2" d="M826.24,156.07l-6-6-45.54-45.54c-2.2-2.21-5.9-7.14-5.9-11s3.6-8.46,5.73-10.59l46.66-46.65,0,0,5-5a1.36,1.36,0,0,0,0-1.62,1.82,1.82,0,0,0-1.62-.87H811.37c-1.38,0-4.11.06-5.22,0a21.35,21.35,0,0,0-7.46,1c-2,.81-2.77,1.3-6.49,5L789,37.86C775.83,51,752,74.68,742.09,84.56l.66-.52c-.23.23-.47.46-.68.68-1.75,1.74-4.13,5.76-4.12,9s2.36,7.27,4.12,9c9.87,9.88,33.74,33.58,46.94,46.7l3.17,3.14c3.71,3.68,4.52,4.18,6.48,5a21.41,21.41,0,0,0,7.47,1c1.51-.09,6.06,0,6.06,0h8.47l.37-.14.07.16h3.55a1.81,1.81,0,0,0,1.62-.87A1.35,1.35,0,0,0,826.24,156.07Z"></path><path class="cls-2" d="M658,79.81H625.67A15.67,15.67,0,0,1,614,75a16.42,16.42,0,0,1,0-22.88,14.61,14.61,0,0,1,5.35-3.56,16.06,16.06,0,0,1,6.16-1.11h6.69v0h17.4s2.75.2,4.2-1.25a5.64,5.64,0,0,0,1.3-4V30.81a5.64,5.64,0,0,0-1.3-4c-1.45-1.45-4.37-1.22-4.37-1.22H625.21v0A36,36,0,0,0,598.9,36.82a36.66,36.66,0,0,0-11,26.62,37.11,37.11,0,0,0,11,26.92,36.47,36.47,0,0,0,26.77,11H658a15.58,15.58,0,0,1,11.52,4.88A15.79,15.79,0,0,1,673,123.93a14.25,14.25,0,0,1-3.4,5.19,14.92,14.92,0,0,1-5.35,3.41,16.12,16.12,0,0,1-6.33,1.14H506s-1.8,5.57-8.67,12.44c-5.45,5.45-13.71,9.37-13.71,9.37l5.56-.07H658a37.93,37.93,0,0,0,38-37.8,37.93,37.93,0,0,0-38-37.8Z"></path><path class="cls-2" d="M507.88,47.21h62.28s2.71.2,4.14-1.24A5.59,5.59,0,0,0,575.59,42V30.77a5.59,5.59,0,0,0-1.29-3.92c-1.43-1.43-4.32-1.21-4.32-1.21H553v0H491.22l-5.51-.08s8.18,3.89,13.59,9.29C506.1,41.68,507.88,47.21,507.88,47.21Z"></path><path class="cls-2" d="M730.21,50.76v0h0v-12h0V34s.19-2.64-1.24-4a5.66,5.66,0,0,0-3.92-1.26H713.8a5.64,5.64,0,0,0-3.91,1.26,4.34,4.34,0,0,0-1.1,2.35v104.8h0v11.48h0v4.77s-.19,2.62,1.24,4a5.66,5.66,0,0,0,3.92,1.26h11.28a5.64,5.64,0,0,0,3.91-1.26,4.18,4.18,0,0,0,1.1-2.33V50.8Z"></path><path class="cls-2" d="M310.41,116.2v-1.94h0V49.36H288.85v64.9h0v2.06a3.1,3.1,0,0,0,1.23,2.76,7.73,7.73,0,0,0,3.92.86h11.28a7.73,7.73,0,0,0,3.92-.86A3.22,3.22,0,0,0,310.41,116.2Z"></path><path class="cls-3" d="M499,65.72A68.14,68.14,0,0,0,484.87,45,67,67,0,0,0,464.27,31a62.78,62.78,0,0,0-25.14-5.19h-38s-1.7-.08-2.2,1.11a2.52,2.52,0,0,0,.19,2.07l2,2.06,1.26,1.26h-.05L406,35.9l7.2,7.24.08,0,1.49,1.5A12.85,12.85,0,0,0,417.83,47a12.49,12.49,0,0,0,3.11.59c.95,0,3.79,0,3.79,0h1.7l.09,0h12.61a44.6,44.6,0,0,1,16.71,3.24,45.05,45.05,0,0,1,13.78,9.42A44.2,44.2,0,0,1,479,74a42.6,42.6,0,0,1,0,33.4,46.75,46.75,0,0,1-9.24,13.79,42.5,42.5,0,0,1-13.8,9.42,44.8,44.8,0,0,1-16.86,3.24H421.65a12.56,12.56,0,0,0-3.81.56,12.2,12.2,0,0,0-2.61,1.78c-.7.64-2.67,2.69-2.67,2.69l-11.81,11.9h0L399,152.52a2.53,2.53,0,0,0-.19,2.07c.5,1.19,2.2,1.11,2.2,1.11h3l31.73-.09h3.39a62.22,62.22,0,0,0,25.14-5.19A65.93,65.93,0,0,0,485,136.46,70.74,70.74,0,0,0,499,115.69a61.37,61.37,0,0,0,5-25A61.43,61.43,0,0,0,499,65.72Z"></path><path class="cls-3" d="M272.46,79.8H240.18a15.72,15.72,0,0,1-11.68-4.86,16.4,16.4,0,0,1,0-22.88,14.63,14.63,0,0,1,5.35-3.57,16.12,16.12,0,0,1,6.33-1.13v0h30.25s2.74.2,4.19-1.25a5.61,5.61,0,0,0,1.31-4V30.78a5.61,5.61,0,0,0-1.31-4c-1.45-1.45-4.37-1.22-4.37-1.22H262v0H240.18v0A36,36,0,0,0,213.41,36.8a36.69,36.69,0,0,0-11,26.62,37.09,37.09,0,0,0,11,26.92,36.5,36.5,0,0,0,26.77,11h32.28A15.54,15.54,0,0,1,284,106.24a16.13,16.13,0,0,1,4.87,11.35,16.34,16.34,0,0,1-1.3,6.33,14.47,14.47,0,0,1-3.4,5.19,15.24,15.24,0,0,1-5.36,3.41,15.77,15.77,0,0,1-5.87,1h-65s-2.74-.2-4.19,1.25a5.61,5.61,0,0,0-1.31,4v11.42a5.65,5.65,0,0,0,1.31,4c1.45,1.45,4.37,1.22,4.37,1.22H273.4v-.08a37.83,37.83,0,0,0,37-37.72,37.95,37.95,0,0,0-38-37.79Z"></path><path class="cls-3" d="M387.45,30.87s.2-2.71-1.24-4.14a5.52,5.52,0,0,0-3.91-1.29H371a5.55,5.55,0,0,0-3.92,1.29c-1.43,1.43-1.21,4.31-1.21,4.31v4.75h0v66.55L294.26,28.71l-2.51-2.51a1.82,1.82,0,0,0-1.76-.53c-1.12.36-1.12,1.16-1.12,1.16l0,7.57.07,2.77-.15,18.62a11.79,11.79,0,0,0,.39,3.3,15.14,15.14,0,0,0,1.74,2.46l1.79,1.77,91.55,91.46a1.82,1.82,0,0,0,1.76.53c1.12-.36,1.12-1.16,1.12-1.16l.3-106.09h0V35.79h0Z"></path><path class="cls-4" d="M154.61,136.8V52.27a32.44,32.44,0,0,0-32.45-32.44H38.39A32.44,32.44,0,0,0,5.94,52.27v83.78A32.45,32.45,0,0,0,38.4,168.5h86.28l34,9.37a6.18,6.18,0,0,0,7.47-8Z"></path><line class="cls-5" x1="43.05" y1="41.27" x2="43.05" y2="5.94"></line><polyline class="cls-5" points="117.5 41.27 117.5 23.6 117.5 5.94"></polyline><path class="cls-6" d="M37.07,117.73s22.28,16.44,43,16.44,43.44-16.44,43.44-16.44"></path></g></g></svg>